<svg fill="#fff" data-name="Layer 1" xmlns="http://www.w3.org/2000/svg" viewBox="0 0 989.92 980.5"><path d="M723.5,985.2c-62.6,0-143.4-41.7-200.2-76.7-76-46.9-158-111.7-230.7-182.5l-.3-.3-23.1-23.1C198.4,629.9,133.6,548,86.7,471.9,51.7,415.2,10,334.3,10,271.7c0-67,47.9-138.1,68.5-165.6,16.1-21.4,72.2-91.4,119.9-91.4,19.6,0,40.7,12.8,68.4,41.6,24.5,25.4,48.1,57,63.5,79.1C351,165,370.2,196,384.2,222.6c22.8,43.2,25.4,61.7,25.4,71.9,0,20.5-10.7,38.3-31.9,52.9-13.9,9.6-30.6,16.8-46.8,23.8-10.9,4.7-28.3,12.2-34.9,17.5,2.3,9.8,12.4,33.5,39.8,73.7,25.5,37.4,58.5,78,88.2,108.6,30.6,29.8,71.1,62.8,108.6,88.2,40.2,27.4,63.8,37.5,73.7,39.8,5.3-6.6,12.8-24,17.5-34.9,7-16.2,14.2-32.9,23.8-46.8,14.6-21.1,32.4-31.9,52.9-31.9,10.2,0,28.7,2.6,71.9,25.4,26.7,14.1,57.7,33.2,87.2,54,22,15.4,53.6,39,79.1,63.5,28.8,27.7,41.6,48.8,41.6,68.4,0,47.7-69.9,103.9-91.4,119.9-27.2,20.7-98.4,68.6-165.4,68.6ZM332.7,685.1c69.8,68,148.1,130,220.6,174.7C623.6,903.1,685.6,928,723.5,928c33.7,0,81.7-20.6,128.5-55,20.5-15.1,39.2-31.9,52.5-47.4,12.6-14.5,17.1-24,18.3-27.8-4.9-10.4-33.7-43-100.9-89.4-26.4-18.2-53.7-34.9-76.8-47.1-29.1-15.3-41.2-17.9-44-18.4-1.1.7-4.2,3.4-9.1,11.5-5.4,9-10.6,21-15.6,32.6-6.2,14.3-12.5,29-20.4,40.9-12.7,19.3-28.3,29.2-46.4,29.2h-1c-8.8-.2-35.6-.8-108.3-50.3C460.2,679.5,416.6,644,383.7,612l-.5-.5c-32-32.9-67.5-76.4-94.8-116.6-49.5-72.7-50.1-99.5-50.3-108.3-.4-18.4,9.3-34.3,28.9-47.2,11.9-7.9,26.8-14.3,41.2-20.6,11.6-5,23.5-10.2,32.6-15.6,8.1-4.8,10.7-8,11.5-9.1-.4-2.8-3.1-14.9-18.4-44-12.2-23.1-28.9-50.4-47.1-76.8-46.4-67.3-79-96.1-89.4-100.9-3.8,1.2-13.3,5.8-27.8,18.3-15.4,13.4-32.3,32-47.4,52.5-34.5,46.8-55,94.8-55,128.5,0,37.8,24.9,99.8,68.2,170.2,44.7,72.5,106.7,150.9,174.7,220.6l22.6,22.6ZM673.8,479.5a21.08,21.08,0,0,1-20.7-17.4c-5.1-29.1-22-54.5-47.5-71.3-25.9-17.1-57.5-23.4-89-17.8a21,21,0,1,1-7.3-41.3c42.2-7.4,84.6,1.1,119.5,24.2,35.2,23.3,58.6,58.4,65.7,99.1a21,21,0,0,1-17,24.3c-1.3,0-2.5.2-3.7.2Zm126.4-54.3a21.08,21.08,0,0,1-20.7-17.4c-10-56.6-42.7-105.7-92-138.2-49.7-32.8-110.4-45-171-34.4a21,21,0,0,1-7.3-41.3c71.1-12.5,142.6,1.9,201.4,40.7,59.1,39,98.3,98,110.2,166a21,21,0,0,1-17,24.3,21.86,21.86,0,0,1-3.6.3ZM969,409.6a21.08,21.08,0,0,1-20.7-17.4c-17-96.5-72.7-180.3-156.9-235.8C706.9,100.6,603.8,79.9,501,98a21,21,0,0,1-7.3-41.3c113.3-20,227.3,3,320.8,64.7C908.4,183.4,970.6,277,989.6,385a21,21,0,0,1-17,24.3,21.86,21.86,0,0,1-3.6.3Z" transform="translate(-5 -9.7)"/><path d="M723.5,990.2c-63.76,0-145.49-42.11-202.82-77.44-76.53-47.23-158.77-112.28-231.57-183.18l-23.45-23.45c-71.11-73-136.16-155.25-183.22-231.61C47.12,417.29,5,335.64,5,271.7,5,203.27,53.6,131,74.5,103.1,95.63,75,150,9.7,198.4,9.7c21.11,0,43.31,13.3,72,43.13,26.51,27.49,51.48,61.74,64,79.71,21,30,40.24,61.16,54.22,87.73,23.29,44.12,26,63.49,26,74.23,0,22.27-11.46,41.45-34.06,57-14.24,9.83-31.12,17.13-47.45,24.18l-.21.09c-9.13,3.94-23.65,10.2-31.12,15,3.8,12.09,15.45,35.5,38.17,68.83,25.27,37.07,58,77.4,87.61,107.89,30.71,29.9,71,62.64,107.86,87.59,33.42,22.78,56.8,34.41,68.85,38.19,4.76-7.48,11-22,14.94-31.09l.11-.26c7.06-16.32,14.35-33.2,24.19-47.44,15.63-22.6,34.82-34.06,57-34.06,10.74,0,30.12,2.69,74.23,26,27.46,14.5,58.62,33.79,87.75,54.33,22,15.4,53.69,39,79.68,64,29.84,28.7,43.14,50.9,43.14,72,0,50.47-71.5,107.6-93.41,123.91C870.47,936.91,794.9,990.2,723.5,990.2ZM198.4,19.7c-45.13,0-100.13,68.43-115.9,89.41C62.21,136.19,15,206.27,15,271.7c0,61.6,41.3,141.44,76,197.57C137.64,545,202.22,626.65,272.78,699.11l23.35,23.35C368.38,792.82,450,857.39,525.93,904.25c56.23,34.64,136.15,76,197.57,76,68.27,0,141.54-51.73,162.37-67.58,15-11.14,89.43-68.93,89.43-115.92,0-18.16-12.36-38.15-40.07-64.8-25.53-24.52-56.78-47.8-78.5-63-28.81-20.32-59.58-39.37-86.66-53.68C727.91,593,710.17,590.4,700.5,590.4c-18.72,0-35.13,10-48.79,29.74-9.27,13.43-16.37,29.85-23.23,45.72l-.09.22c-5,11.54-12.47,28.93-18.19,36l-2,2.45-3.06-.71c-5.66-1.32-27.83-8.12-75.39-40.54-37.3-25.26-78.15-58.44-109.27-88.75l-.1-.1c-30-30.88-63.15-71.73-88.74-109.26-32.33-47.44-39.2-69.69-40.54-75.38l-.72-3.07,2.46-2c7.12-5.72,24.51-13.22,36-18.18l.24-.1c15.87-6.86,32.29-14,45.73-23.23,19.74-13.6,29.74-30,29.74-48.79,0-9.67-2.57-27.41-24.82-69.57-13.8-26.21-32.83-57-53.58-86.66-12.36-17.74-37-51.51-63-78.5C236.55,32.06,216.56,19.7,198.4,19.7ZM723.5,933c-38.7,0-101.69-25.13-172.82-68.94-72.81-44.89-151.46-107.17-221.47-175.38l0,0L306.56,666C238.48,596.25,176.2,517.6,131.14,444.52,87.33,373.29,62.2,310.29,62.2,271.7c0-34.77,20.93-83.92,56-131.47,15.09-20.49,32.19-39.43,48.14-53.3,16.91-14.58,26.91-18.46,29.57-19.3l1.85-.58,1.76.81c10.49,4.84,43.1,32.52,91.42,102.6,18.13,26.31,35,53.76,47.4,77.31,15.81,30.07,18.49,42.52,18.93,45.62l.29,2-1.2,1.64c-2.34,3.22-6.71,6.74-13,10.46-9.07,5.38-20.39,10.38-33.17,15.89l-1.73.76c-13.58,5.94-27.63,12.08-38.68,19.42-18.07,11.88-27,26.32-26.67,42.92.19,8.44.77,34.13,49.43,105.6,26.81,39.47,62.05,82.81,94.25,115.92l.46.45c32.83,31.94,76.17,67.18,115.87,94.21,71.32,48.56,97,49.24,105.55,49.43h.94c16.25,0,30.46-9.07,42.22-27,7.47-11.24,13.59-25.37,19.52-39l.47-1.1c4.8-11.12,10.24-23.74,15.9-33.18,5.43-9,9-12.09,10.71-13.15l1.64-1L702,638c4.33.77,17.42,4.16,45.45,18.89,23.55,12.44,51,29.28,77.31,47.41,69.79,48.19,97.62,80.85,102.58,91.39l.84,1.77-.59,1.87c-.86,2.71-4.79,12.87-19.3,29.57C894.93,844.43,876,861.54,855,877,807.28,912.08,758.14,933,723.5,933ZM336.21,681.54c69.49,67.7,147.52,129.5,219.71,174C625.52,898.41,686.6,923,723.5,923,756.08,923,803,902.8,849,869c20.43-15.05,38.78-31.61,51.67-46.63,10.84-12.47,15.08-20.59,16.61-24.18-7.34-12.39-38.7-44.52-98.26-85.65-26-17.91-53.09-34.53-76.3-46.79-23-12.07-35.12-16.08-40.27-17.39a52.39,52.39,0,0,0-6.21,8.66c-5.32,8.85-10.61,21.14-15.29,32l-.48,1.11c-6.1,14.06-12.4,28.61-20.34,40.58-13.73,20.85-30.74,31.43-50.57,31.43h-1.11c-9.18-.21-37.09-.84-111-51.17-40.16-27.33-84-63-117.28-95.35l-.55-.54c-32.64-33.56-68.28-77.41-95.4-117.33-50.32-73.91-50.95-101.82-51.16-111-.44-20.28,10-37.6,31.15-51.5C276,327.41,290.47,321.1,304.44,315l1.76-.77c12.48-5.38,23.49-10.24,32.05-15.32a46.51,46.51,0,0,0,8.65-6.23c-1.13-4.55-4.95-16.52-17.43-40.24-12.25-23.2-28.87-50.3-46.79-76.29C237.29,110.29,206.76,83.81,197,77.89c-3.49,1.52-11.65,5.8-24.18,16.6-15.39,13.39-32,31.75-46.63,51.68C92.4,192.06,72.2,239,72.2,271.7c0,36.8,24.59,97.88,67.46,167.58,44.68,72.46,106.48,150.5,174,219.73Zm337.59-197A26,26,0,0,1,648.18,463c-4.88-27.8-21-52-45.33-68-24.8-16.38-55.12-22.43-85.38-17.06a26,26,0,1,1-9-51.14c43.55-7.64,87.27,1.22,123.12,25,36.45,24.13,60.56,60.5,67.87,102.41a26,26,0,0,1-21.07,30.08l-.42.08h-.44c-.46,0-1,0-1.52.09S674.59,484.5,673.8,484.5ZM539,366a125.34,125.34,0,0,1,69.33,20.62C635,404.2,652.67,430.7,658,461.24A16,16,0,0,0,673.8,474.5c.38,0,.84,0,1.37-.08s1.16-.1,1.83-.11a16,16,0,0,0,12.58-18.45c-6.84-39.17-29.4-73.19-63.54-95.79-33.71-22.31-74.86-30.64-115.88-23.45a16,16,0,0,0,5.58,31.46A132.36,132.36,0,0,1,539,366ZM800.2,430.2a26,26,0,0,1-25.62-21.53c-9.76-55.23-41.66-103.14-89.83-134.9-48.61-32.07-108-44-167.39-33.64a26,26,0,0,1-9-51.15c72.4-12.73,145.21,2,205,41.45,60.33,39.8,100.23,99.93,112.37,169.31a26,26,0,0,1-21.06,30.08A26.08,26.08,0,0,1,800.2,430.2ZM559.1,226.48a237.21,237.21,0,0,1,131.15,39c50.49,33.28,83.93,83.53,94.17,141.5A16,16,0,0,0,800.2,420.2,17.47,17.47,0,0,0,803,420a15.8,15.8,0,0,0,10.25-6.56,16,16,0,0,0,2.65-12c-11.67-66.63-50-124.41-108-162.69-57.66-38-127.9-52.23-197.78-40a16,16,0,0,0-12.95,18.52,16,16,0,0,0,18.52,12.94A251.4,251.4,0,0,1,559.1,226.48ZM969,414.6a26,26,0,0,1-25.62-21.53c-16.78-95.22-71.73-177.78-154.73-232.5-83.38-55-185.23-75.53-286.78-57.65a26,26,0,0,1-25.79-40.46,25.72,25.72,0,0,1,16.76-10.68c114.58-20.23,229.8,3,324.41,65.45,95.08,62.77,158,157.56,177.27,266.9A25.89,25.89,0,0,1,969,414.6Zm-395.46-328c78.85,0,155.25,22.44,220.62,65.61C879.48,208.47,936,293.38,953.22,391.33A16,16,0,0,0,969,404.6a17.47,17.47,0,0,0,2.78-.23,16,16,0,0,0,12.89-18.51c-18.75-106.6-80.16-199-172.92-260.29-92.47-61-205.11-83.73-317.18-63.95a16,16,0,0,0-12.95,18.52,16,16,0,0,0,18.52,12.94A423.06,423.06,0,0,1,573.54,86.62Z" transform="translate(-5 -9.7)"/></svg>