<svg xmlns="http://www.w3.org/2000/svg" id="Layer_1" data-name="Layer 1" viewBox="0 0 893.17 980"><path d="M494.25,10c-7.53,0-13.56,4.52-15.32,11.3-2.76,11.3,2,15.82,25.37,22.85C593.45,71.28,672.56,118,738.36,181.78c53.24,52,86.39,97.69,118.29,163.24,41.44,84.64,58.77,158.73,58.77,251.4,0,68.31-8,118.79-29.13,184.09-9.29,29.13-9.8,31.39-6,37.17,4.52,6.78,15.32,8,22.35,3,4.52-3.51,18.08-42.94,26.62-77.35,56-228-26.12-471.9-208.45-618.32C666.78,81.32,597,43.15,532.67,21.55,514.09,15.27,496.76,10,494.25,10Z" transform="translate(-53.42 -10)"></path><path d="M487.72,188.32c-13.31-.25-20.6,17.33-11.05,25.62,2.51,2,14.07,6.78,25.87,10.55C557.29,242.58,603,271,645.69,313.9c52.24,52,83.88,109.75,100.71,183.08,3.52,14.81,5.52,34.9,6.53,64.29,1.5,49.48-3.27,85.9-16.83,126.33-7.28,21.85-7.54,23.85-4,29.38,5.27,8,13.06,10,20.34,5.27,7.78-5.28,19.59-41.69,26.87-83.13,6.78-39.68,5.28-112.52-2.76-148.18C757.69,409.57,720.27,342.76,663,287.26c-44.45-42.69-86.39-68.56-145.91-90.16C504.3,192.33,491,188.56,487.72,188.32Z" transform="translate(-53.42 -10)"></path><path d="M226.52,194.83C158,215.43,105.22,258.62,76.84,317.14c-15.32,31.64-21.35,58-23.11,101-3.26,82.13,18.84,161,82.13,291.33,56.76,117,107,186.35,168.27,232.56,18.34,13.81,52.74,32.15,71.58,38.43,66.3,21.35,143.9,6.53,208.44-39.67,26.12-18.84,36.42-28.88,36.42-35.41,0-7-19.09-57-32.15-84.64-13.82-28.63-37.93-64.55-52-76.85-18.59-16.33-26.87-19.34-52.74-19.09-19.59,0-25.11,1-41.44,8-10.29,4.52-25.61,13.06-33.9,19.34s-15.57,11.3-16.58,11.3c-3.77,0-156.71-301.37-153.95-303.63,1.26-1,9-3.77,17.33-6.28,32.9-9.79,64.55-33.15,76.1-55.75,14.57-28.63,7-68.32-24.61-128.59-16.82-31.9-45.2-74.85-51.48-78.11C248.38,187.81,250.39,187.56,226.52,194.83Zm7.8,29.64c8.79-1.51,9-1.26,23.61,20.59,31.39,47.72,51.23,93.68,51.23,118.79,0,30.39-40.43,60.53-90.66,67.06-13.31,1.76-22.35,7.79-22.35,14.82,0,6.28,160.23,323.23,177.56,350.85,8.53,13.82,16.57,13.07,33.4-3.26,36.41-35.66,79.36-48.72,104.47-31.89,19.34,12.81,49,63.54,68.56,116.78l7.53,20.59-9.54,8.29c-22.85,19.59-62,38.43-94.68,46.21-22.1,5-61.28,5-83.13-.25-25.61-6.28-64.54-26.37-88.9-46-35.92-29.13-76.1-78.6-107.24-132.6-14.57-25.12-58.52-114-72.33-145.92-15.57-36.42-31.9-86.39-39.18-120.05-4.78-23.35-5.78-34.91-5.78-75.34,0-42.2.76-50,5.78-67.31,16.58-58,52.74-100.71,107.49-127.58C214.22,231.51,229.54,225.23,234.32,224.47Z" transform="translate(-53.42 -10)"></path><path d="M403.59,303.84c-8.54,0-16.58,6.28-16.58,13.06,0,10,5,14.06,25.62,20.84,84.64,27.88,151.94,95.69,180.07,182.08,16.82,51.23,16.82,121,.25,169.27-6,18.08-6.28,26.12-.75,32.15,4.52,5,11.3,5.78,18.33,2,5.78-3,16.07-34.15,21.35-64.54,4.77-27.88,4.77-79.61,0-107.74C612.79,442,535.94,350.55,430,311.12,419.41,307.35,407.6,304.09,403.59,303.84Z" transform="translate(-53.42 -10)"></path></svg>