<svg xmlns="http://www.w3.org/2000/svg" xmlns:xlink="http://www.w3.org/1999/xlink" x="0px" y="0px" viewBox="0 0 1000 1000" xml:space="preserve"><metadata> Svg Vector Icons : http://www.onlinewebfonts.com/icon </metadata><g><path d="M658.1,326.2c0-87.2-70.9-158.1-158.1-158.1c-87.1,0-158,70.9-158,158.1c0,87.2,70.9,158,158,158C587.2,484.2,658.1,413.3,658.1,326.2z M363.1,326.2c0-75.5,61.5-137,137-137c75.6,0,137,61.5,137,137c0,75.5-61.5,137-137,137C424.6,463.1,363.1,401.7,363.1,326.2z"></path><path d="M500,886.4l16.4-20.1c12.2-15.1,299.8-371.7,299.8-540.1C816.2,151.8,674.4,10,500,10C325.8,10,184,151.8,184,326.1c0,168.5,287.5,525,299.7,540.1L500,886.4z M500,48.5c151.1,0,286.1,126.5,286.1,277.6c0,132.1-224.7,429.8-286.1,508.2c-61.3-78.5-284.8-376.2-284.8-508.2C215.3,175.1,349,48.5,500,48.5z"></path><path d="M654.3,771.5v21.4c93.4,18,151.2,50.7,151.2,81.3C805.5,918.9,680,969,500,969c-180,0-305.5-50.1-305.5-94.8c0-30.5,57.8-63.3,151.2-81.2v-21.5c-97.1,17.5-172.4,52.3-172.4,102.6C173.3,949.4,341.7,990,500,990c158.4,0,326.7-40.6,326.7-115.9C826.7,823.8,751.4,789,654.3,771.5z"></path></g></svg>